<?xml version="1.0" encoding="UTF-8"?> <svg xmlns="http://www.w3.org/2000/svg" xmlns:xlink="http://www.w3.org/1999/xlink" width="500" zoomAndPan="magnify" viewBox="0 0 375 374.999991" height="500" preserveAspectRatio="xMidYMid meet" version="1.0"><defs><clipPath id="4e2e09b725"><path d="M 299 134 L 356.765625 134 L 356.765625 160 L 299 160 Z M 299 134 " clip-rule="nonzero"></path></clipPath></defs><path fill="#c19a5b" d="M 221.097656 323.976562 L 150.953125 323.976562 L 150.953125 329.972656 C 150.953125 330.894531 150.953125 332.277344 150.953125 333.660156 C 150.953125 333.660156 150.953125 334.121094 150.953125 334.121094 L 221.097656 334.121094 C 221.097656 330.894531 221.097656 328.128906 221.097656 324.902344 C 221.097656 324.441406 221.097656 323.976562 221.097656 323.976562 Z M 221.097656 323.976562 " fill-opacity="1" fill-rule="nonzero"></path><path fill="#c19a5b" d="M 152.339844 345.648438 C 155.109375 352.566406 162.03125 357.636719 171.257812 359.941406 C 171.257812 362.246094 172.183594 365.9375 174.488281 369.164062 C 177.257812 371.929688 180.949219 373.773438 185.5625 373.773438 C 190.179688 373.773438 194.332031 372.390625 196.640625 369.625 C 199.40625 366.859375 200.332031 363.167969 200.792969 360.863281 C 202.636719 360.402344 204.484375 359.941406 206.328125 359.480469 C 211.867188 357.175781 216.019531 353.027344 218.789062 347.492188 C 219.710938 345.648438 220.171875 343.804688 220.636719 341.960938 L 150.953125 341.960938 C 151.414062 342.421875 151.414062 344.265625 152.339844 345.648438 Z M 183.71875 361.324219 C 185.101562 361.324219 186.027344 361.324219 187.410156 361.324219 L 189.71875 361.324219 C 191.101562 361.324219 192.484375 361.324219 193.871094 361.324219 C 193.410156 362.246094 192.949219 363.171875 192.484375 364.09375 C 191.101562 365.476562 189.253906 366.398438 186.488281 366.398438 C 183.71875 366.398438 181.871094 365.9375 180.949219 364.554688 C 180.027344 363.632812 180.027344 362.707031 179.566406 361.324219 C 180.488281 361.324219 181.871094 361.324219 183.71875 361.324219 Z M 183.71875 361.324219 " fill-opacity="1" fill-rule="nonzero"></path><path fill="#c19a5b" d="M 150.953125 309.683594 L 150.953125 316.601562 L 221.097656 316.601562 L 221.097656 309.683594 Z M 150.953125 309.683594 " fill-opacity="1" fill-rule="nonzero"></path><path fill="#c19a5b" d="M 69.738281 146.464844 L 29.128906 132.171875 C 25.4375 130.789062 21.285156 133.09375 19.898438 136.78125 C 18.515625 140.46875 20.824219 144.621094 24.515625 146.003906 L 65.125 160.296875 C 66.046875 160.757812 66.507812 160.757812 67.429688 160.757812 C 70.660156 160.757812 73.429688 158.914062 74.351562 155.6875 C 75.738281 151.535156 73.890625 147.386719 69.738281 146.464844 Z M 69.738281 146.464844 " fill-opacity="1" fill-rule="nonzero"></path><path fill="#c19a5b" d="M 99.269531 86.984375 C 100.65625 88.828125 102.5 89.289062 104.808594 89.289062 C 106.65625 89.289062 108.039062 88.828125 109.421875 87.445312 C 112.652344 84.679688 112.652344 80.070312 110.347656 77.304688 L 82.195312 44.566406 C 79.429688 41.339844 74.8125 41.339844 72.046875 43.644531 C 68.816406 46.410156 68.816406 51.019531 71.121094 53.789062 Z M 99.269531 86.984375 " fill-opacity="1" fill-rule="nonzero"></path><path fill="#c19a5b" d="M 184.179688 59.320312 C 188.332031 59.320312 191.5625 56.09375 191.5625 51.945312 L 191.101562 8.601562 C 191.101562 4.453125 187.871094 1.226562 183.71875 1.226562 C 179.566406 1.226562 176.335938 4.453125 176.335938 8.601562 L 176.796875 51.945312 C 176.796875 56.09375 180.027344 59.320312 184.179688 59.320312 Z M 184.179688 59.320312 " fill-opacity="1" fill-rule="nonzero"></path><path fill="#c19a5b" d="M 297.699219 43.183594 C 294.46875 40.878906 289.855469 41.339844 287.546875 44.566406 L 261.242188 79.148438 C 258.9375 82.375 259.398438 86.984375 262.628906 89.289062 C 264.011719 90.214844 265.398438 90.675781 267.242188 90.675781 C 269.550781 90.675781 271.394531 89.75 273.242188 87.90625 L 299.542969 53.328125 C 301.390625 50.097656 300.929688 45.488281 297.699219 43.183594 Z M 297.699219 43.183594 " fill-opacity="1" fill-rule="nonzero"></path><g clip-path="url(#4e2e09b725)"><path fill="#c19a5b" d="M 355.84375 140.007812 C 354.917969 136.320312 350.765625 133.554688 347.074219 134.476562 L 305.082031 145.082031 C 301.390625 146.003906 298.621094 150.152344 299.542969 153.839844 C 300.46875 157.070312 303.234375 159.375 306.464844 159.375 C 306.929688 159.375 307.851562 159.375 308.3125 159.375 L 350.304688 148.769531 C 354.457031 147.847656 356.765625 144.160156 355.84375 140.007812 Z M 355.84375 140.007812 " fill-opacity="1" fill-rule="nonzero"></path></g><path fill="#c19a5b" d="M 187.871094 91.597656 C 136.1875 91.597656 93.734375 134.015625 93.734375 185.65625 C 93.734375 212.398438 105.269531 237.757812 125.113281 255.738281 C 125.113281 255.738281 125.574219 256.199219 125.574219 256.199219 C 125.574219 256.199219 132.496094 261.273438 131.574219 270.03125 C 131.574219 271.875 131.113281 273.261719 130.648438 275.105469 C 129.265625 282.941406 127.882812 293.085938 134.34375 300.464844 L 177.71875 300.464844 C 178.179688 300.003906 190.179688 286.632812 183.71875 255.277344 C 183.257812 252.511719 185.101562 249.746094 187.871094 248.824219 C 190.640625 248.363281 193.871094 250.207031 194.332031 252.972656 C 199.40625 276.949219 194.792969 292.625 190.179688 300.925781 L 237.710938 300.925781 C 244.632812 294.46875 247.398438 284.785156 245.09375 272.339844 C 242.785156 260.351562 251.554688 254.816406 252.476562 253.894531 C 252.9375 253.433594 253.398438 252.972656 253.859375 252.511719 C 271.855469 234.53125 281.546875 211.015625 281.546875 186.117188 C 282.007812 133.554688 239.554688 91.597656 187.871094 91.597656 Z M 184.640625 156.148438 C 184.179688 155.6875 183.257812 155.6875 182.332031 156.148438 C 173.566406 158.453125 168.488281 148.769531 168.027344 148.308594 C 167.105469 146.464844 164.796875 146.003906 162.953125 146.925781 C 161.105469 147.847656 160.644531 150.152344 161.566406 151.996094 C 163.875 156.609375 170.335938 163.984375 179.566406 163.984375 C 180.949219 163.984375 182.332031 163.984375 184.179688 163.523438 C 184.179688 163.523438 184.179688 163.523438 184.640625 163.523438 L 184.640625 245.132812 C 181.871094 247.441406 173.105469 253.433594 165.722656 250.207031 C 156.953125 246.054688 156.953125 236.375 156.953125 235.914062 C 156.953125 235.914062 156.953125 235.453125 156.953125 235.453125 L 168.027344 220.699219 C 169.875 218.390625 174.027344 220.699219 174.027344 220.699219 C 175.875 221.621094 178.179688 221.160156 179.105469 219.3125 C 180.027344 217.46875 179.566406 215.164062 177.71875 214.242188 C 175.410156 212.859375 171.71875 211.476562 168.027344 212.398438 C 167.566406 207.789062 165.722656 202.253906 162.492188 199.949219 C 161.105469 198.566406 158.800781 199.027344 157.414062 200.871094 C 156.03125 202.714844 156.492188 204.558594 158.339844 205.941406 C 160.183594 207.328125 161.105469 213.320312 161.566406 217.46875 L 150.492188 231.761719 C 150.492188 232.222656 150.03125 232.222656 150.03125 232.683594 C 147.261719 232.683594 142.648438 232.222656 139.417969 226.691406 C 134.804688 217.929688 138.496094 209.632812 138.957031 209.171875 C 139.878906 207.328125 138.957031 205.480469 137.574219 204.558594 C 133.417969 202.253906 128.804688 198.105469 129.726562 187.039062 C 130.1875 179.199219 138.035156 174.128906 140.800781 172.285156 C 144.957031 172.746094 152.800781 175.050781 156.492188 179.199219 C 153.261719 181.507812 151.417969 184.273438 150.03125 187.039062 C 149.109375 188.882812 150.03125 191.1875 151.878906 191.648438 C 152.339844 192.109375 152.800781 192.109375 153.261719 192.109375 C 154.644531 192.109375 156.03125 191.1875 156.492188 190.265625 C 156.953125 189.34375 161.105469 181.042969 169.414062 184.273438 C 171.257812 185.195312 173.566406 184.273438 174.027344 182.429688 C 174.949219 180.582031 174.027344 178.277344 172.183594 177.816406 C 168.953125 176.433594 166.183594 176.433594 163.414062 176.894531 C 158.339844 169.058594 145.878906 166.75 141.726562 165.828125 C 140.800781 164.445312 138.496094 161.21875 141.265625 153.839844 C 144.957031 144.160156 156.953125 143.238281 157.414062 143.238281 C 158.800781 143.238281 160.183594 142.316406 160.644531 140.929688 C 163.414062 134.015625 167.566406 130.328125 171.71875 128.941406 C 176.796875 127.558594 182.332031 130.328125 184.640625 132.171875 Z M 248.324219 191.648438 C 247.859375 193.492188 246.9375 195.339844 245.554688 197.644531 C 244.632812 198.566406 240.476562 200.871094 236.785156 202.253906 C 234.941406 202.714844 234.015625 204.097656 234.015625 205.480469 C 234.015625 207.328125 235.402344 209.171875 236.324219 211.015625 C 237.246094 212.398438 238.171875 213.78125 238.632812 214.703125 C 239.554688 218.851562 238.632812 223.464844 236.324219 226.691406 C 234.480469 229.457031 231.25 230.839844 228.019531 231.300781 C 227.09375 231.300781 226.632812 231.300781 226.171875 231.300781 C 225.710938 227.152344 223.863281 221.621094 218.789062 217.929688 C 220.171875 215.625 221.558594 213.320312 222.941406 210.09375 C 223.863281 208.25 222.941406 205.941406 221.097656 205.480469 C 219.25 204.558594 216.941406 205.480469 216.480469 207.328125 C 211.867188 217.46875 208.175781 219.773438 205.867188 220.699219 C 204.023438 221.160156 203.097656 220.699219 202.636719 220.699219 C 200.792969 219.773438 198.945312 220.238281 197.5625 222.082031 C 196.640625 223.925781 197.101562 226.230469 198.945312 227.152344 C 199.40625 227.152344 201.253906 228.535156 204.023438 228.535156 C 204.945312 228.535156 206.328125 228.535156 207.714844 228.074219 C 210.019531 227.152344 211.867188 225.769531 214.175781 223.925781 C 219.710938 227.613281 219.25 233.609375 219.25 234.53125 C 219.25 234.992188 219.25 235.453125 219.25 235.453125 C 218.328125 236.835938 217.867188 238.21875 216.941406 239.601562 C 214.636719 243.75 213.714844 246.519531 209.097656 248.363281 C 202.175781 251.589844 195.253906 246.519531 192.484375 244.671875 L 192.484375 196.261719 C 197.101562 202.714844 202.175781 205.941406 208.175781 205.941406 C 208.636719 205.941406 208.636719 205.941406 209.097656 205.941406 C 210.484375 205.941406 211.40625 205.019531 211.867188 204.097656 C 212.328125 203.175781 212.789062 201.792969 211.867188 200.871094 C 211.867188 200.871094 207.253906 190.265625 211.40625 184.273438 C 212.789062 182.429688 212.328125 180.582031 210.484375 179.199219 C 208.636719 177.816406 206.792969 178.277344 205.40625 180.121094 C 201.253906 185.65625 201.714844 192.570312 203.097656 197.644531 C 198.023438 194.878906 195.253906 187.960938 193.871094 185.195312 L 193.410156 184.273438 C 192.949219 182.890625 192.484375 182.429688 192.023438 182.429688 L 192.023438 130.328125 C 198.484375 122.949219 207.253906 127.097656 207.714844 127.558594 C 213.25 131.25 214.636719 135.398438 213.25 140.929688 C 212.789062 142.777344 213.714844 144.621094 215.097656 145.082031 C 216.480469 146.003906 218.789062 145.542969 219.710938 144.160156 C 220.636719 142.777344 222.480469 142.316406 223.863281 142.316406 C 228.941406 142.777344 234.480469 148.769531 235.863281 153.839844 C 236.324219 155.6875 236.324219 162.140625 235.863281 165.367188 C 231.710938 164.445312 226.171875 164.445312 222.019531 167.210938 C 217.867188 163.0625 212.789062 161.679688 212.328125 161.21875 C 210.484375 160.757812 208.175781 161.679688 207.714844 163.523438 C 207.253906 165.367188 208.175781 167.671875 210.019531 168.136719 C 210.019531 168.136719 215.558594 169.980469 218.789062 174.589844 C 220.171875 176.433594 220.636719 178.277344 221.097656 180.121094 C 221.097656 181.96875 222.941406 183.351562 224.789062 183.351562 C 224.789062 183.351562 224.789062 183.351562 225.25 183.351562 C 227.09375 183.351562 228.941406 181.507812 228.480469 179.660156 C 228.480469 177.355469 227.558594 175.050781 226.632812 172.746094 C 229.402344 171.363281 234.015625 171.824219 235.863281 172.746094 C 237.710938 174.128906 242.324219 178.738281 242.785156 179.199219 C 247.398438 184.273438 249.246094 187.960938 248.324219 191.648438 Z M 248.324219 191.648438 " fill-opacity="1" fill-rule="nonzero"></path></svg> 